<?xml version="1.0" encoding="utf-8"?>
<!-- Generator: Adobe Illustrator 25.1.0, SVG Export Plug-In . SVG Version: 6.00 Build 0)  -->
<svg version="1.1" id="Layer_1" xmlns="http://www.w3.org/2000/svg" xmlns:xlink="http://www.w3.org/1999/xlink" x="0px" y="0px"
	 viewBox="0 0 2340 1560" enable-background="new 0 0 2340 1560" xml:space="preserve">
<text transform="matrix(1 0 0 1 860.7294 987.8715)" fill="#45387F" font-family="'BebasNeue'" font-size="106.8116px" letter-spacing="16">PROJECT HIVE</text>
<text transform="matrix(1 0 0 1 866.4716 1039.1294)" fill="#7D6AAD" font-family="'BebasNeue'" font-size="50.541px" letter-spacing="5">CARDS &amp; PROJECT MANAGEMENT</text>
<g>
	<polygon fill="#5F4E9A" points="1051.979,582.039 1108.112,614.451 1166.91,580.503 1110.777,548.097 	"/>
	<polygon fill="#6D388C" points="1166.91,723.427 1108.112,689.485 1049.314,723.427 1108.112,757.375 	"/>
	<polygon fill="#804D99" points="1111.206,687.699 1170.004,721.641 1228.803,687.699 1170.004,653.751 	"/>
	<polygon fill="#9264A7" points="1290.689,651.965 1231.892,618.023 1173.099,651.965 1231.892,685.913 	"/>
	<polygon fill="#45387F" points="1015.279,668.049 1043.137,651.965 1015.279,635.887 	"/>
	<polygon fill="#C584B8" points="1324.729,707.349 1296.872,723.427 1324.729,739.511 	"/>
	<polygon fill="#A479B4" points="1234.985,616.237 1293.783,650.179 1324.729,632.315 1324.729,603.236 1291.118,583.831 	"/>
	<polygon fill="#7D6AAD" points="1170.004,578.722 1226.132,546.31 1170.004,513.899 1113.877,546.31 	"/>
	<polygon fill="#58267D" points="1105.023,759.161 1046.226,725.213 1015.279,743.077 1015.279,781.883 1040.472,796.435 	"/>
	<polygon fill="#882C76" points="1170.004,796.691 1105.458,833.945 1170.004,871.215 1234.551,833.945 	"/>
	<polygon fill="#45387F" points="1046.226,650.179 1105.023,616.237 1048.891,583.831 1015.279,603.236 1015.279,632.315 	"/>
	<polygon fill="#AE4D97" points="1296.443,798.217 1231.892,760.947 1173.099,794.9 1237.646,832.164 	"/>
	<polygon fill="#C584B8" points="1293.783,725.213 1234.985,759.161 1299.537,796.435 1324.729,781.883 1324.729,743.077 	"/>
</g>
</svg>
